<svg width="24" height="24" viewBox="0 0 24 24" fill="none" xmlns="http://www.w3.org/2000/svg">
<path fill-rule="evenodd" clip-rule="evenodd" d="M12.398 17.804C13.881 17.0348 19 14.0163 19 9C19 5.13401 15.866 2 12 2C8.13401 2 5 5.13401 5 9C5 14.0163 10.119 17.0348 11.602 17.804C11.8548 17.9351 12.1452 17.9351 12.398 17.804ZM12 12C13.6569 12 15 10.6569 15 9C15 7.34315 13.6569 6 12 6C10.3431 6 9 7.34315 9 9C9 10.6569 10.3431 12 12 12Z" fill="#222222"/>
<path d="M12.398 17.804L12.6743 18.3366V18.3366L12.398 17.804ZM11.602 17.804L11.3257 18.3366L11.3257 18.3366L11.602 17.804ZM18.4 9C18.4 11.2907 17.2328 13.1563 15.829 14.5722C14.4258 15.9876 12.8363 16.9007 12.1218 17.2713L12.6743 18.3366C13.4427 17.938 15.1542 16.9573 16.6812 15.4171C18.2077 13.8774 19.6 11.7256 19.6 9H18.4ZM12 2.6C15.5346 2.6 18.4 5.46538 18.4 9H19.6C19.6 4.80264 16.1974 1.4 12 1.4V2.6ZM5.6 9C5.6 5.46538 8.46538 2.6 12 2.6V1.4C7.80264 1.4 4.4 4.80264 4.4 9H5.6ZM11.8782 17.2713C11.1637 16.9007 9.57422 15.9876 8.17097 14.5722C6.76717 13.1563 5.6 11.2907 5.6 9H4.4C4.4 11.7256 5.79235 13.8774 7.31879 15.4171C8.8458 16.9573 10.5573 17.938 11.3257 18.3366L11.8782 17.2713ZM12.1218 17.2713C12.0421 17.3127 11.9579 17.3127 11.8782 17.2713L11.3257 18.3366C11.7518 18.5576 12.2482 18.5576 12.6743 18.3366L12.1218 17.2713ZM14.4 9C14.4 10.3255 13.3255 11.4 12 11.4V12.6C13.9882 12.6 15.6 10.9882 15.6 9H14.4ZM12 6.6C13.3255 6.6 14.4 7.67452 14.4 9H15.6C15.6 7.01178 13.9882 5.4 12 5.4V6.6ZM9.6 9C9.6 7.67452 10.6745 6.6 12 6.6V5.4C10.0118 5.4 8.4 7.01178 8.4 9H9.6ZM12 11.4C10.6745 11.4 9.6 10.3255 9.6 9H8.4C8.4 10.9882 10.0118 12.6 12 12.6V11.4Z" fill="#222222"/>
<path d="M18.0622 16.5C18.6766 16.9561 19 17.4734 19 18C19 18.5266 18.6766 19.0439 18.0622 19.5C17.4478 19.9561 16.5641 20.3348 15.5 20.5981C14.4359 20.8614 13.2288 21 12 21C10.7712 21 9.56414 20.8614 8.5 20.5981C7.43587 20.3348 6.5522 19.9561 5.93782 19.5C5.32344 19.0439 5 18.5266 5 18C5 17.4734 5.32344 16.9561 5.93782 16.5" stroke="#222222" stroke-width="2" stroke-linecap="round"/>
</svg>
